<svg width="141" height="298" viewBox="0 0 141 298" fill="none" xmlns="http://www.w3.org/2000/svg">
<path fill-rule="evenodd" clip-rule="evenodd" d="M140.097 17.5528C140.097 7.86495 132.232 0 122.544 0H17.2278C7.53994 0 -0.325012 7.86495 -0.325012 17.5528V280.195C-0.325012 289.882 7.53994 297.747 17.2278 297.747H122.544C132.232 297.747 140.097 289.882 140.097 280.195V17.5528Z" fill="#F2F2F2"/>
<path fill-rule="evenodd" clip-rule="evenodd" d="M82.2395 25.016C82.2395 24.1197 81.5115 23.3918 80.6156 23.3918H60.4588C59.5611 23.3918 58.8331 24.1197 58.8331 25.016C58.8331 25.9129 59.5611 26.6409 60.4588 26.6409H80.6156C81.5115 26.6409 82.2395 25.9129 82.2395 25.016Z" fill="#ACACAC"/>
<path d="M70.2112 292.303C77.7289 292.303 83.8231 286.209 83.8231 278.692C83.8231 271.174 77.7289 265.08 70.2112 265.08C62.6936 265.08 56.5994 271.174 56.5994 278.692C56.5994 286.209 62.6936 292.303 70.2112 292.303Z" fill="#FAFAFA"/>
<path fill-rule="evenodd" clip-rule="evenodd" d="M72.9493 273.312L73.0182 273.315L73.0857 273.319L73.1531 273.325L73.2206 273.333L73.2866 273.342L73.3527 273.353L73.418 273.365L73.4833 273.38L73.5472 273.395L73.6111 273.412L73.6743 273.431L73.7361 273.451L73.7979 273.473L73.859 273.497L73.9193 273.521L73.979 273.547L74.0372 273.575L74.0954 273.603L74.1522 273.634L74.209 273.665L74.2644 273.698L74.3191 273.732L74.3724 273.767L74.4256 273.804L74.4775 273.842L74.5286 273.881L74.5783 273.921L74.6273 273.963L74.6749 274.005L74.7217 274.048L74.7679 274.093L74.8126 274.139L74.8559 274.186L74.8985 274.234L74.9404 274.283L74.9802 274.333L75.0193 274.384L75.0569 274.436L75.0938 274.489L75.1293 274.542L75.1634 274.597L75.1961 274.652L75.2273 274.709L75.2579 274.766L75.2863 274.824L75.314 274.882L75.3402 274.942L75.3651 275.002L75.3878 275.063L75.4098 275.125L75.4297 275.187L75.4489 275.25L75.4659 275.314L75.4815 275.378L75.4957 275.443L75.5085 275.508L75.5192 275.575L75.5284 275.641L75.5362 275.708L75.5419 275.775L75.5469 275.844L75.549 275.912L75.5497 275.981V281.319L75.549 281.388L75.5469 281.457L75.5419 281.524L75.5362 281.593L75.5284 281.659L75.5192 281.726L75.5085 281.791L75.4957 281.858L75.4815 281.922L75.4659 281.986L75.4489 282.05L75.4297 282.113L75.4098 282.176L75.3878 282.237L75.3651 282.298L75.3402 282.358L75.314 282.418L75.2863 282.477L75.2579 282.534L75.2273 282.592L75.1961 282.648L75.1634 282.703L75.1293 282.758L75.0938 282.812L75.0569 282.864L75.0193 282.916L74.9802 282.967L74.9404 283.017L74.8985 283.066L74.8559 283.114L74.8126 283.161L74.7679 283.207L74.7217 283.251L74.6749 283.295L74.6273 283.337L74.5783 283.379L74.5286 283.419L74.4775 283.458L74.4256 283.496L74.3724 283.533L74.3191 283.568L74.2644 283.602L74.209 283.635L74.1522 283.667L74.0954 283.697L74.0372 283.726L73.979 283.753L73.9193 283.779L73.859 283.804L73.7979 283.827L73.7361 283.849L73.6743 283.869L73.6111 283.888L73.5472 283.905L73.4833 283.92L73.418 283.935L73.3527 283.947L73.2866 283.958L73.2206 283.967L73.1531 283.975L73.0857 283.981L73.0182 283.986L72.9493 283.988L72.8804 283.989H67.5419L67.473 283.988L67.4041 283.986L67.3367 283.981L67.2692 283.975L67.2018 283.967L67.1357 283.958L67.0697 283.947L67.0043 283.935L66.939 283.92L66.8751 283.905L66.8112 283.888L66.748 283.869L66.6862 283.849L66.6244 283.827L66.5634 283.804L66.503 283.779L66.4434 283.753L66.3851 283.726L66.3269 283.697L66.2701 283.667L66.2133 283.635L66.1579 283.602L66.1032 283.568L66.05 283.533L65.9967 283.496L65.9449 283.458L65.8937 283.419L65.844 283.379L65.795 283.337L65.7475 283.295L65.7006 283.251L65.6544 283.207L65.6097 283.161L65.5664 283.114L65.5238 283.066L65.4819 283.017L65.4421 282.967L65.4031 282.916L65.3647 282.864L65.3285 282.812L65.293 282.758L65.2589 282.703L65.2263 282.648L65.195 282.592L65.1645 282.534L65.1354 282.477L65.1084 282.418L65.0821 282.358L65.0572 282.298L65.0345 282.237L65.0125 282.176L64.9926 282.113L64.9735 282.05L64.9564 281.986L64.9408 281.922L64.9266 281.858L64.9138 281.791L64.9032 281.726L64.8939 281.659L64.8861 281.593L64.8804 281.524L64.8755 281.457L64.8733 281.388L64.8726 281.319V275.981L64.8733 275.912L64.8755 275.844L64.8804 275.775L64.8861 275.708L64.8939 275.641L64.9032 275.575L64.9138 275.508L64.9266 275.443L64.9408 275.378L64.9564 275.314L64.9735 275.25L64.9926 275.187L65.0125 275.125L65.0345 275.063L65.0572 275.002L65.0821 274.942L65.1084 274.882L65.1354 274.824L65.1645 274.766L65.195 274.709L65.2263 274.652L65.2589 274.597L65.293 274.542L65.3285 274.489L65.3647 274.436L65.4031 274.384L65.4421 274.333L65.4819 274.283L65.5238 274.234L65.5664 274.186L65.6097 274.139L65.6544 274.093L65.7006 274.048L65.7475 274.005L65.795 273.963L65.844 273.921L65.8937 273.881L65.9449 273.842L65.9967 273.804L66.05 273.767L66.1032 273.732L66.1579 273.698L66.2133 273.665L66.2701 273.634L66.3269 273.603L66.3851 273.575L66.4434 273.547L66.503 273.521L66.5634 273.497L66.6244 273.473L66.6862 273.451L66.748 273.431L66.8112 273.412L66.8751 273.395L66.939 273.38L67.0043 273.365L67.0697 273.353L67.1357 273.342L67.2018 273.333L67.2692 273.325L67.3367 273.319L67.4041 273.315L67.473 273.312L67.5419 273.311H72.8804L72.9493 273.312ZM67.5497 274.539L67.5043 274.54L67.4666 274.541L67.4297 274.543L67.3935 274.547L67.3573 274.551L67.321 274.556L67.2855 274.562L67.2507 274.568L67.216 274.576L67.1812 274.585L67.1471 274.594L67.1137 274.604L67.0796 274.614L67.0469 274.627L67.0143 274.639L66.9816 274.652L66.9497 274.666L66.9184 274.68L66.8872 274.696L66.8559 274.712L66.8261 274.729L66.7963 274.747L66.7665 274.766L66.7373 274.785L66.7089 274.805L66.6805 274.825L66.6528 274.847L66.6259 274.868L66.5996 274.891L66.5733 274.914L66.5478 274.938L66.5229 274.962L66.4988 274.987L66.4746 275.012L66.4519 275.038L66.4292 275.065L66.4071 275.092L66.3866 275.119L66.366 275.148L66.3461 275.176L66.3269 275.205L66.3084 275.235L66.2907 275.265L66.2737 275.295L66.2573 275.326L66.2417 275.357L66.2275 275.388L66.2133 275.42L66.1998 275.453L66.1877 275.486L66.1757 275.519L66.165 275.552L66.1551 275.586L66.1458 275.62L66.1373 275.655L66.1295 275.69L66.1231 275.724L66.1167 275.76L66.1117 275.796L66.1082 275.832L66.1046 275.868L66.1025 275.905L66.1011 275.943L66.1004 275.988V281.311L66.1011 281.358L66.1025 281.395L66.1046 281.431L66.1082 281.468L66.1117 281.505L66.1167 281.54L66.1231 281.576L66.1295 281.611L66.1373 281.646L66.1458 281.68L66.1551 281.714L66.165 281.748L66.1757 281.782L66.1877 281.814L66.1998 281.847L66.2133 281.88L66.2275 281.911L66.2417 281.943L66.2573 281.974L66.2737 282.005L66.2907 282.036L66.3084 282.066L66.3269 282.095L66.3461 282.124L66.366 282.152L66.3866 282.181L66.4071 282.208L66.4292 282.235L66.4519 282.262L66.4746 282.288L66.4988 282.313L66.5229 282.338L66.5478 282.362L66.5733 282.387L66.5996 282.409L66.6259 282.432L66.6528 282.454L66.6805 282.475L66.7089 282.496L66.7373 282.516L66.7665 282.534L66.7956 282.553L66.8261 282.57L66.8559 282.587L66.8872 282.604L66.9184 282.619L66.9497 282.634L66.9816 282.648L67.0143 282.661L67.0469 282.674L67.0796 282.685L67.113 282.696L67.1471 282.706L67.1812 282.715L67.216 282.724L67.2507 282.732L67.2855 282.738L67.321 282.744L67.3573 282.749L67.3935 282.754L67.4297 282.756L67.4666 282.759L67.5043 282.76L67.5497 282.761H72.8726L72.9181 282.76L72.9557 282.759L72.9926 282.756L73.0288 282.754L73.0651 282.749L73.1013 282.744L73.1368 282.738L73.1716 282.732L73.2064 282.724L73.2412 282.715L73.2753 282.706L73.3093 282.696L73.3427 282.685L73.3754 282.674L73.408 282.661L73.4407 282.648L73.4727 282.634L73.5039 282.619L73.5351 282.604L73.5664 282.587L73.5962 282.57L73.6268 282.553L73.6559 282.534L73.685 282.515L73.7134 282.496L73.7418 282.475L73.7695 282.454L73.7965 282.432L73.8227 282.41L73.849 282.387L73.8746 282.362L73.8994 282.338L73.9236 282.313L73.9477 282.288L73.9704 282.262L73.9932 282.235L74.0152 282.208L74.0358 282.181L74.0564 282.153L74.0762 282.124L74.0954 282.095L74.1139 282.066L74.1316 282.036L74.1487 282.005L74.165 281.974L74.1806 281.943L74.1948 281.911L74.209 281.88L74.2225 281.847L74.2346 281.814L74.2467 281.782L74.2573 281.748L74.2673 281.714L74.2765 281.68L74.285 281.646L74.2928 281.611L74.2992 281.576L74.3056 281.54L74.3106 281.505L74.3141 281.468L74.3177 281.431L74.3198 281.395L74.3212 281.357L74.3219 281.311V275.988L74.3212 275.943L74.3198 275.905L74.3177 275.868L74.3141 275.832L74.3106 275.796L74.3056 275.76L74.2992 275.724L74.2928 275.69L74.285 275.655L74.2765 275.62L74.2673 275.586L74.2573 275.552L74.2467 275.519L74.2346 275.486L74.2225 275.453L74.209 275.42L74.1948 275.388L74.1806 275.357L74.165 275.326L74.1487 275.295L74.1316 275.265L74.1139 275.235L74.0954 275.205L74.0762 275.176L74.0564 275.148L74.0358 275.119L74.0152 275.092L73.9932 275.065L73.9704 275.038L73.9477 275.012L73.9236 274.987L73.8994 274.962L73.8746 274.938L73.849 274.914L73.8227 274.891L73.7965 274.868L73.7695 274.847L73.7418 274.825L73.7134 274.805L73.685 274.785L73.6559 274.766L73.626 274.747L73.5962 274.729L73.5664 274.712L73.5351 274.696L73.5039 274.68L73.4727 274.666L73.4407 274.652L73.408 274.639L73.3754 274.627L73.3427 274.614L73.3086 274.604L73.2753 274.594L73.2412 274.585L73.2064 274.576L73.1716 274.568L73.1368 274.562L73.1013 274.556L73.0651 274.551L73.0288 274.547L72.9926 274.543L72.9557 274.541L72.9181 274.54L72.8726 274.539H67.5497Z" fill="#BABABA"/>
<path d="M70.2112 16.4866C71.8046 16.4866 73.0964 15.1949 73.0964 13.6015C73.0964 12.008 71.8046 10.7163 70.2112 10.7163C68.6178 10.7163 67.326 12.008 67.326 13.6015C67.326 15.1949 68.6178 16.4866 70.2112 16.4866Z" fill="#D8D8D8"/>
<path d="M70.2112 14.8913C70.9178 14.8913 71.4906 14.3185 71.4906 13.6119C71.4906 12.9053 70.9178 12.3325 70.2112 12.3325C69.5046 12.3325 68.9318 12.9053 68.9318 13.6119C68.9318 14.3185 69.5046 14.8913 70.2112 14.8913Z" fill="#EB5055"/>
<path d="M131.321 42.2722H9.10034V258.757H131.321V42.2722Z" fill="#161616"/>
<path fill-rule="evenodd" clip-rule="evenodd" d="M132.069 40.4711L132.699 40.8932L133.123 41.5272L133.273 42.2721V258.757L133.123 259.503L132.699 260.137L132.069 260.559L131.321 260.708H9.10033L8.35496 260.559L7.7221 260.137L7.3002 259.503L7.15112 258.757V42.2721L7.3002 41.5272L7.7221 40.8932L8.35496 40.4711L9.10033 40.3221H131.321L132.069 40.4711ZM9.10033 42.2721V258.757H131.321V42.2721H9.10033Z" fill="#C7C7C7"/>
</svg>
